<svg xmlns="http://www.w3.org/2000/svg" xmlns:xlink="http://www.w3.org/1999/xlink" xml:space="preserve" viewBox="0 0 1061.48 307.39"><defs><linearGradient id="a"><stop offset=".16" stop-color="#f00000"/><stop offset=".16" stop-color="#fd8c00"/><stop offset=".33" stop-color="#fd8c00"/><stop offset=".33" stop-color="#ffd000"/><stop offset=".5" stop-color="#ffd000"/><stop offset=".5" stop-color="#119f0b"/><stop offset=".67" stop-color="#119f0b"/><stop offset=".67" stop-color="#457cdf"/><stop offset=".83" stop-color="#457cdf"/><stop offset=".83" stop-color="#c22edc"/></linearGradient><linearGradient xlink:href="#a" id="b" x1="314.97" x2="475.94" y1="327.88" y2="-79.46" gradientUnits="userSpaceOnUse"/></defs><path fill="url(#b)" fill-rule="evenodd" d="M763.94 98.05c-.09 7.23-1.34 13.38-3.75 18.43a37.45 37.45 0 0 1-9.4 12.47 50.69 50.69 0 0 1-12.48 7.8 76.45 76.45 0 0 1-12.87 4.41 158.66 158.66 0 0 1-10.6 2.3l-20.7 4.3c-1.86.3-4.47.8-7.82 1.6a69.9 69.9 0 0 0-10.37 3.34 31.03 31.03 0 0 0-9.07 5.47 10.82 10.82 0 0 0-3.86 8c.03 3.11 1.1 5.86 3.24 8.24 2.12 2.39 5.07 4.23 8.81 5.59a39.16 39.16 0 0 0 12.96 2.04c7.25 0 13.6-1.19 19.07-3.6a50.23 50.23 0 0 0 15.42-10.97 156.3 156.3 0 0 0 15.28-18.57l16.36 6.13-15 46.09h-13.63l-2.72-7.26a53.94 53.94 0 0 1-10.55 5.36 73.86 73.86 0 0 1-12.56 3.57 70.13 70.13 0 0 1-13.26 1.27c-11.48-.05-21.6-2.2-30.36-6.4-8.79-4.23-15.68-10.04-20.67-17.43-4.98-7.43-7.54-15.96-7.62-25.66.06-7.34 1.33-13.55 3.8-18.56a35.55 35.55 0 0 1 9.83-12.4 54.74 54.74 0 0 1 13.61-7.79c4.99-1.95 10-3.57 15.08-4.82 5.07-1.22 9.84-2.38 14.26-3.4l22.5-5.7c5.65-1.38 10.07-2.8 13.24-4.22 3.2-1.42 5.45-3.06 6.72-4.93 1.3-1.87 1.93-4.2 1.87-6.95a16.58 16.58 0 0 0-3.68-10.48c-2.41-3.04-5.76-5.39-10.04-7.12-4.3-1.7-9.27-2.58-14.9-2.6-12.82.05-24.1 3.68-33.88 10.85-9.78 7.2-18.34 17.57-25.68 31.15l-17.04-5.7 18.85-57.88h13.4l3.18 11.11a51.89 51.89 0 0 1 11.37-6.12 74.9 74.9 0 0 1 14.03-4 81.02 81.02 0 0 1 15.3-1.44c12.45.08 23.5 2.46 33.15 7.17 9.63 4.68 17.2 11.11 22.73 19.27 5.53 8.17 8.33 17.52 8.45 28.04zM613.93 46.52v18.62l-5.44.45c-4.8.34-8.28 1.28-10.5 2.72a9.57 9.57 0 0 0-4.19 6.21c-.6 2.67-.85 6.07-.76 10.12V163c-.12 3.71.11 6.89.65 9.58a10.2 10.2 0 0 0 4.1 6.4c2.22 1.6 5.76 2.62 10.7 3.1l5.44.45v18.6h-81.58v-18.6l5.44-.45c4.79-.37 8.28-1.28 10.49-2.75a9.58 9.58 0 0 0 4.2-6.18c.59-2.7.84-6.1.79-10.15V84.64a44.2 44.2 0 0 0-.68-9.58 10.08 10.08 0 0 0-4.11-6.4c-2.21-1.6-5.76-2.61-10.7-3.07l-5.43-.45V46.52Zm-78.86 89.4c-.03 5.73-.85 10.71-2.44 15-1.62 4.28-3.85 7.6-6.72 9.97a15.68 15.68 0 0 1-10.17 3.63 22.55 22.55 0 0 1-10.86-2.7 20.32 20.32 0 0 1-7.63-7.22 19.72 19.72 0 0 1-2.86-10.26 15.3 15.3 0 0 1 1.53-7.03c1.05-2.13 2.84-4.4 5.3-6.83a23.13 23.13 0 0 0 3.8-4.68c.9-1.47 1.5-3.2 1.84-5.13.34-1.9.51-4.34.48-7.23a46.6 46.6 0 0 0-11.4-30.61 39.3 39.3 0 0 0-10.56-8.73c-3.72-2.07-7.23-3.12-10.55-3.15-3.48.09-6.35 1.13-8.59 3.23a11.14 11.14 0 0 0-3.46 8.14 77.12 77.12 0 0 0 1.13 10.23l12.74 69.93h-11.82a225.28 225.28 0 0 0-15.2-4.28 131.32 131.32 0 0 0-13.38-2.4c-4.45-.55-9.47-.97-15.05-1.26l-3.4-18.62h2.72c4.82 0 8.2-.85 10.15-2.58 1.95-1.73 2.89-4.34 2.8-7.85 0-.9-.05-1.9-.14-2.92-.08-1.02-.2-2.1-.31-3.23l-7.71-42.01a41.3 41.3 0 0 1-.68-7.74c.08-7.88 3.17-14.03 9.27-18.45 6.1-4.4 14.6-6.64 25.48-6.72a62.44 62.44 0 0 1 25.06 5.24 72.11 72.11 0 0 1 20.92 14.15 91.36 91.36 0 0 1 15.96 20.69 106.2 106.2 0 0 1 10.18 24.8 103.8 103.8 0 0 1 3.57 26.62zm-131.33 66.3c-.06 4.6-1.48 8.28-4.2 11-2.75 2.72-6.4 4.14-11.02 4.2a21.02 21.02 0 0 1-10.92-3.2 24.36 24.36 0 0 1-8.16-8.14 20.92 20.92 0 0 1-3.2-10.89c.08-4.53 1.5-8.19 4.25-11.02 2.75-2.87 6.32-4.31 10.71-4.43 3.8.09 7.4 1.22 10.8 3.38a26.86 26.86 0 0 1 8.4 8.36 20.39 20.39 0 0 1 3.34 10.77zm10.4-141-9.52 12.73a75.23 75.23 0 0 0-8.56-3.7 20.79 20.79 0 0 0-6.01-1.31 9.4 9.4 0 0 0-6.21 2.38 7.4 7.4 0 0 0-2.64 5.58c.03 1 .2 2.5.54 4.48.34 2.01.68 3.94 1.05 5.78a186 186 0 0 0 .68 3.58l12.95 71.77H384.6a210.4 210.4 0 0 0-15.19-4.28 123.7 123.7 0 0 0-13.35-2.44c-4.45-.54-9.47-.96-15.05-1.25l-3.4-18.62h2.72c4.82 0 8.19-.85 10.15-2.58 1.92-1.73 2.86-4.34 2.8-7.85 0-.9-.06-1.87-.14-2.9l-.31-3.25-7.51-41.3c-.46-2.55-.8-4.68-1.02-6.32a35.96 35.96 0 0 1-.34-4.82 19.9 19.9 0 0 1 3.7-11.77c2.47-3.37 5.88-5.98 10.3-7.85 4.4-1.87 9.58-2.83 15.5-2.86 6.7.05 13.55 1.5 20.61 4.42a75.49 75.49 0 0 1 20.07 12.39zm-87.39-1.35-8.84 12.72a35.8 35.8 0 0 0-5.48-2.94 11.04 11.04 0 0 0-4.08-.71c-2.63.03-4.7.73-6.18 2.1-1.47 1.33-2.2 3.23-2.24 5.64-.08.6-.05 1.19.03 1.78.09.57.29 1.56.57 2.95.28 1.39.7 3.57 1.22 6.63l7.06 39.74c.56 3.2.96 5.67 1.22 7.4.25 1.76.36 3.38.36 4.88a20.8 20.8 0 0 1-4.25 12.67c-2.78 3.68-6.6 6.55-11.5 8.62-4.91 2.1-10.55 3.14-16.99 3.17a55.1 55.1 0 0 1-13.35-1.7 66.52 66.52 0 0 1-13.12-4.73 54.69 54.69 0 0 1-11.23-7.17l2.04 11.56h-11.82a230.15 230.15 0 0 0-15.19-4.28 131.39 131.39 0 0 0-13.38-2.4c-4.45-.55-9.47-.97-15.05-1.26l-3.4-18.62h2.72c4.82 0 8.19-.85 10.15-2.58 1.92-1.73 2.86-4.34 2.8-7.85 0-.9-.05-1.87-.14-2.9-.08-1.01-.2-2.09-.31-3.22l-13.4-72.88h35.88l15.47 84.67a37.45 37.45 0 0 0 10.63 5.87 35.66 35.66 0 0 0 11.85 2.12c4.37-.03 7.74-1.02 10.18-2.95 2.4-1.92 3.66-4.64 3.69-8.19 0-1.07 0-1.87-.03-2.38-.03-.51-.09-1.08-.2-1.7l-8.87-47.03a55.82 55.82 0 0 1-.91-5.7 58.54 58.54 0 0 1-.23-4.53 19.93 19.93 0 0 1 3.63-11.62 23.37 23.37 0 0 1 9.95-7.77c4.25-1.87 9.18-2.8 14.83-2.86 5.86 0 11.7 1.22 17.54 3.74 5.81 2.5 11.96 6.4 18.37 11.7zM197.21 201.12h-61.15l-3.4-18.34 5.02-.46c3.97-.3 6.97-1.39 8.98-3.26 2.05-1.87 3.04-4.73 3.07-8.56 0-1.02-.09-2.15-.2-3.4-.14-1.25-.4-2.6-.74-4.08l-9.98-55.2c-.62-3.9-1.53-8.21-2.72-12.92a50.14 50.14 0 0 0-5.75-13.55 30.53 30.53 0 0 0-11.29-10.74c-4.9-2.8-11.33-4.25-19.33-4.34-8.7.03-15.36 2.04-20.01 6.01-4.65 3.97-7 9.61-7.03 16.93 0 1.67.08 3.85.25 6.51.18 2.67.4 5.28.69 7.86a63 63 0 0 0 .87 6.06l9.56 53.38c.76 4.7 1.84 8.39 3.2 11.05 1.33 2.67 3.2 4.6 5.61 5.82 2.41 1.22 5.62 2.04 9.58 2.43l5 .46 3.42 18.34H31.75l-3.4-18.34 4.99-.46c4.47-.34 7.62-1.41 9.43-3.26 1.82-1.84 2.7-4.47 2.61-7.88 0-1.13-.08-2.38-.28-3.74a126.1 126.1 0 0 0-.62-4.42L32.43 96.46c-.31-1.92-.6-3.94-.85-6.06-.29-2.1-.51-4.09-.68-5.96a54.02 54.02 0 0 1-.29-4.56c.09-7.29 2.36-13.66 6.9-19.1 4.5-5.42 10.82-9.64 18.98-12.65 8.14-3 17.7-4.53 28.7-4.56 13.57-.03 25.45 1.87 35.6 5.72a57.02 57.02 0 0 1 24.91 18.12c6.44 8.22 10.89 18.8 13.32 31.77l11.6 63.84c.85 4.7 1.95 8.39 3.26 11a12.49 12.49 0 0 0 5.47 5.78c2.32 1.2 5.5 2.04 9.47 2.52l4.98.46z" transform="matrix(1.333 0 0 -1.333 0 327.68)"/></svg>